<svg width="410" height="128" xmlns="http://www.w3.org/2000/svg"><style>.element {font-family: 'Courier New', Courier, monospace;font-size: 10px;fill: black;font-weight: bold;dominant-baseline: middle;text-anchor: middle;}.element-charge {font-family: 'Courier New', Courier, monospace;font-size: 4px;fill: black;dominant-baseline: hanging;text-anchor: end;}.ligation {stroke-width: 1px;stroke: black;}.element-H {fill: #bbbbbb;}.element-S {fill: #f7cd29;}.element-Cl {fill: #21d122;}.element-F {fill: #aed482;}.element-N {fill: #7878fa;}.element-O {fill: #eb3738;}.element-C {fill: #000000;}</style><text class="element element-C" x="105.15" y="38.00">C</text><text class="element element-H" x="105.15" y="12.00">H</text><text class="element element-C" x="127.67" y="51.00">C</text><text class="element element-C" x="150.19" y="38.00">C</text><text class="element element-H" x="137.19" y="15.48">H</text><text class="element element-H" x="163.19" y="15.48">H</text><text class="element element-N" x="172.70" y="51.00">N</text><text class="element element-H" x="172.70" y="77.00">H</text><text class="element element-C" x="195.22" y="38.00">C</text><text class="element element-O" x="195.22" y="12.00">O</text><text class="element element-C" x="217.74" y="51.00">C</text><text class="element element-H" x="204.74" y="73.52">H</text><text class="element element-H" x="230.74" y="73.52">H</text><text class="element element-C" x="240.25" y="38.00">C</text><text class="element element-H" x="227.25" y="15.48">H</text><text class="element element-H" x="253.25" y="15.48">H</text><text class="element element-C" x="262.77" y="51.00">C</text><text class="element element-H" x="249.77" y="73.52">H</text><text class="element element-H" x="275.77" y="73.52">H</text><text class="element element-C" x="285.29" y="38.00">C</text><text class="element element-H" x="272.29" y="15.48">H</text><text class="element element-H" x="298.29" y="15.48">H</text><text class="element element-C" x="307.80" y="51.00">C</text><text class="element element-H" x="307.80" y="77.00">H</text><text class="element element-C" x="330.32" y="38.00">C</text><text class="element element-H" x="330.32" y="12.00">H</text><text class="element element-C" x="352.84" y="51.00">C</text><text class="element element-H" x="352.84" y="25.00">H</text><text class="element element-C" x="375.35" y="38.00">C</text><text class="element element-H" x="397.87" y="25.00">H</text><text class="element element-H" x="397.87" y="51.00">H</text><text class="element element-H" x="375.35" y="12.00">H</text><text class="element element-C" x="352.84" y="77.00">C</text><text class="element element-H" x="332.92" y="93.71">H</text><text class="element element-H" x="352.84" y="103.00">H</text><text class="element element-H" x="372.76" y="93.71">H</text><text class="element element-C" x="127.67" y="77.00">C</text><text class="element element-H" x="150.19" y="90.00">H</text><text class="element element-C" x="105.15" y="90.00">C</text><text class="element element-H" x="105.15" y="116.00">H</text><text class="element element-C" x="82.64" y="77.00">C</text><text class="element element-O" x="60.12" y="90.00">O</text><text class="element element-H" x="60.12" y="116.00">H</text><text class="element element-C" x="82.64" y="51.00">C</text><text class="element element-O" x="60.12" y="38.00">O</text><text class="element element-C" x="37.61" y="51.00">C</text><text class="element element-H" x="28.71" y="75.43">H</text><text class="element element-H" x="15.09" y="64.00">H</text><text class="element element-H" x="12.00" y="46.49">H</text><line class="ligation" x1="105" y1="31.00" x2="105.15" y2="19.00"></line><line class="ligation" x1="111" y1="41.50" x2="121.61" y2="47.50"></line><line class="ligation" x1="134" y1="47.50" x2="144.13" y2="41.50"></line><line class="ligation" x1="147" y1="31.94" x2="140.69" y2="21.55"></line><line class="ligation" x1="154" y1="31.94" x2="159.69" y2="21.55"></line><line class="ligation" x1="156" y1="41.50" x2="166.64" y2="47.50"></line><line class="ligation" x1="173" y1="58.00" x2="172.70" y2="70.00"></line><line class="ligation" x1="179" y1="47.50" x2="189.16" y2="41.50"></line><line class="ligation" x1="196" y1="31.11" x2="196.44" y2="18.89"></line><line class="ligation" x1="194" y1="31.11" x2="194.01" y2="18.89"></line><line class="ligation" x1="201" y1="41.50" x2="211.68" y2="47.50"></line><line class="ligation" x1="214" y1="57.06" x2="208.24" y2="67.45"></line><line class="ligation" x1="221" y1="57.06" x2="227.24" y2="67.45"></line><line class="ligation" x1="224" y1="47.50" x2="234.19" y2="41.50"></line><line class="ligation" x1="237" y1="31.94" x2="230.75" y2="21.55"></line><line class="ligation" x1="244" y1="31.94" x2="249.75" y2="21.55"></line><line class="ligation" x1="246" y1="41.50" x2="256.71" y2="47.50"></line><line class="ligation" x1="259" y1="57.06" x2="253.27" y2="67.45"></line><line class="ligation" x1="266" y1="57.06" x2="272.27" y2="67.45"></line><line class="ligation" x1="269" y1="47.50" x2="279.23" y2="41.50"></line><line class="ligation" x1="282" y1="31.94" x2="275.79" y2="21.55"></line><line class="ligation" x1="289" y1="31.94" x2="294.79" y2="21.55"></line><line class="ligation" x1="291" y1="41.50" x2="301.74" y2="47.50"></line><line class="ligation" x1="308" y1="58.00" x2="307.80" y2="70.00"></line><line class="ligation" x1="314" y1="48.61" x2="324.96" y2="42.50"></line><line class="ligation" x1="313" y1="46.50" x2="323.74" y2="40.39"></line><line class="ligation" x1="330" y1="31.00" x2="330.32" y2="19.00"></line><line class="ligation" x1="336" y1="41.50" x2="346.78" y2="47.50"></line><line class="ligation" x1="353" y1="44.00" x2="352.84" y2="32.00"></line><line class="ligation" x1="359" y1="47.50" x2="369.29" y2="41.50"></line><line class="ligation" x1="381" y1="34.50" x2="391.81" y2="28.50"></line><line class="ligation" x1="381" y1="41.50" x2="391.81" y2="47.50"></line><line class="ligation" x1="375" y1="31.00" x2="375.35" y2="19.00"></line><line class="ligation" x1="353" y1="58.00" x2="352.84" y2="70.00"></line><line class="ligation" x1="347" y1="81.50" x2="338.28" y2="89.21"></line><line class="ligation" x1="353" y1="84.00" x2="352.84" y2="96.00"></line><line class="ligation" x1="358" y1="81.50" x2="367.39" y2="89.21"></line><line class="ligation" x1="126" y1="57.89" x2="126.46" y2="70.11"></line><line class="ligation" x1="129" y1="57.89" x2="128.89" y2="70.11"></line><line class="ligation" x1="134" y1="80.50" x2="144.13" y2="86.50"></line><line class="ligation" x1="122" y1="80.50" x2="111.22" y2="86.50"></line><line class="ligation" x1="105" y1="97.00" x2="105.15" y2="109.00"></line><line class="ligation" x1="100" y1="85.50" x2="89.22" y2="79.39"></line><line class="ligation" x1="99" y1="87.61" x2="88.00" y2="81.50"></line><line class="ligation" x1="77" y1="80.50" x2="66.18" y2="86.50"></line><line class="ligation" x1="60" y1="97.00" x2="60.12" y2="109.00"></line><line class="ligation" x1="83" y1="70.00" x2="82.64" y2="58.00"></line><line class="ligation" x1="77" y1="47.50" x2="66.18" y2="41.50"></line><line class="ligation" x1="54" y1="41.50" x2="43.67" y2="47.50"></line><line class="ligation" x1="35" y1="57.58" x2="31.11" y2="68.85"></line><line class="ligation" x1="32" y1="54.50" x2="21.15" y2="60.50"></line><line class="ligation" x1="31" y1="49.78" x2="18.89" y2="47.70"></line><line class="ligation" x1="99" y1="40.39" x2="88.00" y2="46.50"></line><line class="ligation" x1="100" y1="42.50" x2="89.22" y2="48.61"></line></svg>